<?xml version="1.0" encoding="UTF-8"?>
<svg id="Layer_2" data-name="Layer 2" xmlns="http://www.w3.org/2000/svg" width="211.67mm" height="151.69mm" viewBox="0 0 600 430">
  <defs>
    <style>
      .cls-1 {
        fill: #231f20;
        font-family: Optima-Regular, Optima;
        font-size: 31.57px;
      }

      .cls-2 {
        fill: #006838;
      }

      .cls-2, .cls-3, .cls-4, .cls-5, .cls-6, .cls-7, .cls-8, .cls-9 {
        stroke: #231f20;
      }

      .cls-2, .cls-3, .cls-4, .cls-5, .cls-6, .cls-7, .cls-8, .cls-9, .cls-10 {
        stroke-miterlimit: 10;
      }

      .cls-3 {
        fill: #f7941d;
      }

      .cls-4 {
        fill: #fff;
      }

      .cls-5 {
        fill: #e9e9ea;
      }

      .cls-6 {
        fill: #dd3b26;
      }

      .cls-7 {
        fill: #dadbdc;
      }

      .cls-8 {
        fill: #2bb673;
      }

      .cls-9 {
        fill: #74c044;
      }

      .cls-10 {
        fill: none;
        stroke: #808285;
      }

      .cls-11 {
        fill: #f8b2b4;
      }

      .cls-11, .cls-12, .cls-13, .cls-14, .cls-15, .cls-16, .cls-17, .cls-18, .cls-19, .cls-20, .cls-21, .cls-22, .cls-23 {
        stroke-width: 0px;
      }

      .cls-12 {
        fill: #39b54a;
      }

      .cls-13 {
        fill: #df7125;
      }

      .cls-14 {
        fill: #d5d7d8;
      }

      .cls-15 {
        fill: #b31f24;
      }

      .cls-16 {
        fill: #bcbec0;
      }

      .cls-17 {
        fill: #9caf47;
      }

      .cls-18 {
        fill: #32a443;
      }

      .cls-19 {
        fill: #2e9c3f;
      }

      .cls-20 {
        fill: #88171a;
      }

      .cls-21 {
        fill: #e59364;
      }

      .cls-22 {
        fill: #ecf4e5;
      }

      .cls-23 {
        fill: #009444;
      }
    </style>
  </defs>
  <g id="Layer_1-2" data-name="Layer 1">
    <rect class="cls-22" width="600" height="430"/>
    <path class="cls-5" d="M429.78,99.87c-10.61,44.05-19.06,76.9-26.24,100.25-1.26,4.09-3.79,12.2-.88,21.06,5.96,18.1,29.87,24.76,41.27,27.94,12.68,3.53,29.46,8.2,42.23-.49,9.21-6.27,12.18-16.68,13.91-23.1,7.57-28.01,16.35-61.5,25.7-99.97"/>
    <path class="cls-7" d="M451.13,82.47c4.68-.41,5.63-.52,5.67-.53.05,0,0,0,0,0,12.7-1.53,28.99,3.72,28.99,3.72,9.35,3.01,15.35,4.95,22.37,10.09,4.41,3.23,12.93,9.65,16.43,20.9,1.37,4.39,2.05,6.59,1.19,8.9-3.64,9.72-29.84,10.43-49.54,5.46-21.31-5.37-48-20.65-45.9-33.59.45-2.8,2.89-9.41,20.81-14.96Z"/>
    <path class="cls-4" d="M486.7,99.44c-4.46-1.87-8.25-1.91-12.41-1.9-6.99,0-10.79.01-12.17,2.41-1.85,3.24,2.03,8.53,2.84,9.64,3.13,4.26,7.28,5.92,11.81,7.74,3.94,1.58,7.79,3.07,12.61,2.27,1.96-.33,5.1-.85,6.77-3.45,1.57-2.45.93-5.36.69-6.43-.61-2.78-2.21-4.54-3.36-5.78-.48-.52-2.63-2.76-6.78-4.5Z"/>
    <path class="cls-4" d="M496.49,115.4c.33-.75,2.94-6.75-.19-10.86-1.51-1.98-4.62-3.86-7.32-2.56-2.81,1.35-3.46,5.31-3.59,6.1-.31,1.89.04,3.26.69,5.82.61,2.4,1.03,3.98,2.42,5.2.47.41,1.74,1.52,3.35,1.32,2.61-.33,4.16-3.89,4.65-5.03Z"/>
    <path class="cls-6" d="M420.68,138.25c.26-.72.59-1.72.91-2.92.17-.61.5-1.87.86-3.84.26-1.43.38-2.36.45-2.98.1-.93.22-1.39.25-1.42,1.3-1.52,16.58,12.84,35.3,20.32,4.02,1.61,11.77,4.66,22.16,5.5,18.5,1.48,38.47-4.62,39.05-2.55.18.66-1.18,3.62-1.24,4.91,0,.14,0,.15.01.15.14.03,1.27-5.06,1.23-5.06-.02,0-.39,1.57-2.09,8.26-.55,2.16-.63,2.43-.81,3.24-.59,2.52-.91,4.33-1.41,6.59-.93,4.17-1.72,5.74-3.15,11.17-1.64,6.22-3.06,12.18-6.38,24.51-2.69,9.99-3.02,10.81-3.9,11.95-4.66,6.02-12.71,5.54-24.09,4.69-10.34-.78-18-2.88-26.15-5.18-10.92-3.07-6.7-2.82-21.39-7.41-4.36-1.36-13.09-4-19.16-10.82-.86-.97-1.84-2.21-2.57-4.1-1.66-4.29-.86-8.82,1.01-16.03,0,0,4.54-13.29,9.28-31.42.86-3.28,1.47-5.96,1.83-7.56Z"/>
    <path class="cls-20" d="M423.32,196.84c1.68.91,5.65,3.49,17.73,8.92,1.66.75,4.27,1.92,7.86,3.44,9.26,3.92,14.19,5.59,14.13,5.78-.14.42-23.18-6.94-23.18-6.94,0,0-3.5-1.32-6.52-2.39-2.9-1.03-4.49-1.53-5.39-1.84-2.07-.71-10.22-3.53-14.77-10.16-3.41-4.97-3.77-10.59-3.19-10.81.57-.22,1.97,4.59,6.8,9.25,2.41,2.32,4.8,3.83,6.52,4.76Z"/>
    <path class="cls-16" d="M443.1,121.26c4.33,2.89,10.44,6.41,17.73,8.92,3.91,1.35,7.28,2.11,8.17,2.3,5.87,1.23,9.64,1.15,9.62,1.43-.02.29-10.13.33-18.92-2.43-3.45-1.09-6.8-2.58-6.8-2.58-2.43-1.09-4.12-2.03-6.31-3.25-3.63-2.02-5.45-3.03-7.52-4.68-1.33-1.05-3.14-2.5-4.95-4.79-3.33-4.22-4.65-8.77-4.34-8.92.31-.16,2.03,4.65,6.8,9.25,2.41,2.32,4.8,3.83,6.52,4.76Z"/>
    <path class="cls-16" d="M405.05,215.54c.65,3.39,1.92,7.77,4.51,11.74,1.39,2.13,2.85,3.67,3.24,4.06,2.59,2.61,4.82,3.64,4.63,3.84-.2.21-6.05-2.68-9.35-7.27-1.3-1.8-2.27-3.88-2.27-3.88-.71-1.51-1.08-2.7-1.56-4.23-.8-2.55-1.2-3.82-1.34-5.64-.09-1.16-.21-2.76.22-4.98.78-4.09,2.93-7.84,3.21-7.87.28-.03-1.81,4.04-2,8.82-.1,2.42.32,4.22.71,5.41Z"/>
    <text class="cls-1" transform="translate(416.52 178.9) rotate(14.72) skewX(.06)"><tspan x="0" y="0">COKE</tspan></text>
    <path class="cls-3" d="M253.89,126.28s.67-5.22,4.3-9.64c10.71-13.03,35.47-11.13,44.31-6.93,7.6,3.6,10.65,8.89,10.65,8.89.12.21.22.39.28.5-.23-.41-.28-.5-.28-.5,0,0,1.88,2.94,3.52,6.97.87,2.12,2.18,6.28.06,17.67-2.16,11.6-4.51,12.59-7.86,25.62-.81,3.16-1.85,8.89-3.93,20.35-1.64,9.04-2.46,13.55-2.92,16.72-3.11,21.48-.82,27.59-6.9,30.75-4.78,2.48-12.4,1.95-16.69-.75-6.1-3.83-3.82-10.98-3.87-23.71-.05-13.58-2.71-23.76-4.97-32.43,0,0-1.23-4.73-11.84-32.35-1.66-5.86-2.7-10.74-3.38-14.37-.54-2.89-.77-4.59-.49-6.78Z"/>
    <path class="cls-21" d="M316.72,134.27c-2.03-3.95-15.03-4.16-21.18-4.27-7.71-.13-14.25.67-14.25,1.16,0,.4,4.27,1.07,5.37,1.25,0,0,.01,0,.01,0,9.81-.28,12.33-.02,12.33-.02,3.15.33,6.15.64,9.07,2.07,4.47,2.19,5.16,5.24,6.7,5.03,1.92-.26,2.24-5.2,1.94-5.23-.32-.04-2.13,5.2-1.94,5.23s3.14-2.91,1.94-5.23Z"/>
    <path class="cls-21" d="M304.7,184.98c-2.07,3.51-9.54,2.64-13.07,2.22-4.43-.52-7.98-1.8-7.87-2.26.09-.37,2.68-.65,3.35-.72,0,0,0,0,0,0,5.54,1.07,7.04,1.04,7.04,1.04,1.87-.04,3.66-.08,5.66-1.18,3.06-1.67,4.15-4.46,4.98-4.14,1.04.4.08,5.03-.1,5.04-.19.01-.02-5.02.1-5.04s1.12,2.98-.1,5.04Z"/>
    <path class="cls-21" d="M266.84,162.33c1.9-3.88,12.48-3.7,17.48-3.62,6.27.1,11.54,1.09,11.51,1.58-.03.4-3.53.94-4.44,1.09,0,0,0,0,0,0-7.95-.57-10.02-.39-10.02-.39-2.58.23-5.04.45-7.5,1.8-3.77,2.05-4.52,5.08-5.76,4.82-1.55-.32-1.5-5.25-1.25-5.28.26-.03,1.4,5.25,1.25,5.28s-2.37-3-1.25-5.28Z"/>
    <path class="cls-9" d="M274.98,111.67c-2.26-1.27,6.96-9.31,6.65-18.5-.06-1.67-.21-2.49-.7-3.48-1.03-2.08-21.45-7.1-31.29-12.28-9.5-5-13.97-12.68-13.01-13.4.71-.53,4.64,2.54,13.13,5.84,6.07,2.36,14.24,4.75,15.15,3.63.7-.87-3.6-3.1-11.28-11.5-.03-.03-.42-.46-.83-.92-2.4-2.7-7.73-9.04-12.34-17.79-2.39-4.54-6.44-12.22-3.84-13.81,2.17-1.33,8.5,1.78,12.62,5.35,6.65,5.74,3.06,10.92,9.88,18.27,2.69,2.9,7.06,6.28,8.8,5.59,2.71-1.07-1.36-11.86-2.76-22.08-.03-.19-.05-.4-.08-.67-.19-1.75-.38-5.57,1.18-10.02,1.5-4.27,4.97-10.12,7.68-9.8,2.93.35,3.94,7.79,4.39,11.14.63,4.66.17,8.25,0,9.36-.61,3.99-1.96,7.59-1.96,7.59,0,0,.12-.38.61-2.05-.46.91-.57,1.63-.61,2.05-.49,5.65,8.6,10.63,8.14,14.76-.32,2.85.7-5.69.95-8.54.95-10.51-1.56-11.84.55-17.37,1.41-3.71,4.44-8.82,6.59-8.46,1.39.23,2.12,2.71,2.71,4.72.39,1.32.62,2.92.7,3.48.13.89.2,1.64.24,2.17h0c0,2.42-.06,4.9-.16,7.43-.18,4.55-.51,8.92-.95,13.09-.83,2.5-1.19,3.76-1.07,3.79.13.03.89-1.58,2.27-4.82-.98.94-1.17,1.05-1.2,1.04-.23-.12,7.71-5.55,8.99-13.07.83-4.87-1.23-10.44-1.77-12.14-.69-2.18-1.19-2.35-1.52-3.9-1.12-5.16,1.28-11.11,4.19-11.39,2.25-.21,4.45,2.99,6.23,5.59,0,0,4.23,6.25,4.35,13.38.03,1.95-.12,6.64-.12,6.64,0,0-.66,3.91-1.49,7.16,0,0-.49,1.94-3.64,10.43-.41,2.64-.82,5.29-1.23,7.93,2.66-1.13,6.37-3.01,9.96-6.01,4.19-3.5,6.45-7.05,7.65-9.38,1.1-1.61,2.49-3.38,4.22-5.23,1.42-1.52,2.86-2.85,4.21-3.99,3.47-2.52,4.97-2.74,5.69-2.43,2.74,1.19-1.52,11.88-7.11,19.8-2.4,3.4-4.51,5.48-8.31,9.44-4.65,4.84-8.46,8.14-14.36,10.29-.39.14-.72.25-.92.32-.46.11-.7.16-.7.16q.13.02.4.05-.27-.03-.4-.05c.43-.13.99-.29,1.62-.48,18.86-5.83,28.08-15.52,28.8-15.02.75.52-6.4,13.05-22.76,18.86-10.25,3.64-16.6,1.98-21.79,6.29-5.93,4.92-4.83,13.08-3.1,18.98-1.36.06-3.52.22-6.08.72-7.11,1.39-9.92,3.97-11.19,3.26Z"/>
    <path class="cls-18" d="M283.7,87.17c-2.44-1.51-5.72-1.29-5.86-.8-.14.47,2.78.51,4.35,2.64,2.11,2.85.36,7.54.25,7.9,0,0,0,0,0,0-1.94,5.59-2.42,6.67-2.42,6.67-.8,1.69-2.01,3.92-3.86,6.4.47,0,1.22-.05,1.93-.44.98-.53,1.37-1.4,1.54-1.8,1.06-2.46,2.35-4.85,3.15-7.39,2.09-6.6,4.47-7.83,3.31-10.53-.62-1.43-1.82-2.3-2.4-2.66Z"/>
    <path class="cls-18" d="M238.21,30.93c-.85.24.73,5.68,2.33,9.4.91,2.12,1.85,3.67,3.72,6.79,2.56,4.24,3.84,6.36,6.05,8.57,1.61,1.61,4.65,4.29,4.65,4.29h0s1.8,2.17,5.12,6.19c-1.44-3.16-3.22-6.52-5.43-10-.81-1.28-1.64-2.51-2.48-3.69-9.96-17.62-13.17-21.77-13.96-21.55Z"/>
    <path class="cls-19" d="M261.48,81.32c8.95,3.24,14.08,5.09,14.29,4.8.33-.46-12.29-5.4-22.49-11.34-1.53-.89-6.84-4.04-14.61-7.54h0q1.5,1.12,4.5,3.35-3-2.23-4.5-3.35c5.37,6.24,10.99,9.42,14.89,11.13,1.13.49,3.39,1.31,7.92,2.95Z"/>
    <path class="cls-13" d="M280.59,113.34s.03-.01.12-.05c.24-.11.65-.26,2.64-1,1.93-.72,2.89-1.07,2.99-1.11,0,0,.93-.3,4.78-1.16,2.91-.81,4.24-.99,4.24-.99.22-.03.4-.05.49-.06-.93.02-2.2.08-3.69.23-2.78.28-4.75.71-7.37,1.3-5.03,1.12-5.57,1.41-6.09,1.86-.39.34-1.73,1.59-1.73,1.59h0s1.81.18,3.63-.62Z"/>
    <path class="cls-13" d="M260.73,126.61c-.07.62-.09.97-.16,6.11-.06,4.26-.09,6.39-.08,6.61,0,0,.1,2.02,1.5,9.98.64,6.17,1.43,8.82,1.43,8.82.13.44.25.79.3.96-.83-1.76-1.89-4.17-2.92-7.08-1.93-5.44-2.67-9.52-3.63-14.95-1.2-6.81-1.79-10.27-.89-13.08,1.39-4.33,4.34-7.1,5.5-8.17,4.4-4.04,9.75-5.71,10.03-5.33.29.4-5.51,2.45-8.65,8.03-1.87,3.31-2.29,6.97-2.43,8.1Z"/>
    <path class="cls-8" d="M118.15,241.23c9.36,8.22,38.26.07,44.33-15.47,7.48-19.18-23.8-39.33-14.33-62.28,2.44-5.9,5.85-7.83,11.43-20.49,5.23-11.87,8.53-19.37,5.05-24.46-5.28-7.72-23.75-6.35-26.7-.18-2.27,4.74,6.12,9.17,5.37,18.85-.62,7.92-7.12,16.22-12.62,15.94-6.04-.31-11.76-11.01-11.43-20.07.27-7.29,4.41-12.33,1.78-15.07-2.2-2.29-8.38-2.23-8.38-2.23h0c5.06-1.94-12.68,2.41-14.43,7.5-1.21,3.5,3.21,5.91,8.3,14.41,5.37,8.96,9.32,21.07,6.18,23.5-.38.29-1.93,1.27-7.89-1.95-15.9-8.59-16.97-22.07-25.77-23.14-6.54-.79-14.31,5.65-14.12,10.25.23,5.44,11.46,4.66,24.94,16.87,2.98,2.7,6.02,5.99,12.3,10.91,4.61,3.62,7.43,5.34,8.61,6.22,14.02,10.47-4.74,50.24,7.4,60.89Z"/>
    <path class="cls-2" d="M73.91,79.27c-1.02.98-4.87-3.65-10.84-4.41-6.13-.78-14.13,2.46-16.92,8.97-.17.4-2.57,6.24.24,10.89,2.64,4.36,8.03,4.65,7.84,6.43-.21,2.01-7.05.97-11.67,5.54-3.89,3.85-3.85,9.36-3.84,10.35.05,6.39,4.19,13.23,9.55,14.49,8.3,1.95,17.67-9.87,18.55-9,1.15,1.14-18.93,17.7-15.21,26.36,2.12,4.96,11.59,6.28,17.82,5.39,5.84-.84,9.8-3.76,12.43-5.75,11.24-8.51,16.51-22.51,16.5-22.51.95,1.9,7,13.6,17.52,14.65,3.31.33,6.15-.52,11.84-2.22,7.22-2.16,11.91-3.56,13.01-6.84,1.76-5.28-6.97-11.78-5.89-13.03,1.25-1.43,10.76,9.44,22.37,8.64,10.21-.7,16.92-10.09,18.08-11.72,3.08-4.31,8.54-14.44,4.81-19.13-5.72-7.19-28.62,1.4-28.95.01-.16-.65,4.66-2.16,11.52-5.5,8.61-4.2,12.91-6.3,14.98-10.08,3.26-5.95.97-14.39-3.07-19.46-9.22-11.58-31.12-10.02-38.05-1.21-4.12,5.23-2.75,12.76-4.62,12.99-2.33.29-2.66-13.71-11.41-18.45-5.99-3.24-13.8,1.09-14.39,1.4-1.54.82-4.55,2.41-6.05,5.67-1.78,3.86.21,8.08-.33,8.23-.39.11-1.09-2.23-2.32-4.28-1.94-3.25-5.72-6.65-10.01-7.47-7.42-1.43-15.97,4.92-16.8,10.97-.68,4.93,4.37,9.05,3.31,10.07Z"/>
    <path class="cls-23" d="M110.45,174.57c-.75,1.07-14.9-5.96-24.94-17.85-1.53-1.82-3.09-3.67-2.8-3.99,1.13-1.22,28.85,20.23,27.73,21.84Z"/>
    <path class="cls-23" d="M119.04,196.33c-1.47,8.09-3.93,25.24.17,38.08.51,1.58,1.21,3.42,2.93,4.9,7.9,6.81,27.22-2.56,27.06-3.16-.05-.2-2.19.8-6.36.76-2.05-.02-9.23-.09-13.94-4.67-2.88-2.8-3.74-6.21-4.21-8.21-4.04-17.38-3.4-38.41-3.83-38.43-.24-.01-1.45,6.5-.4,14.69.2,1.6.45,2.93.65,3.89"/>
    <path class="cls-12" d="M67.24,104.15c-.58-.52,1.19-8.52,6.75-11.36,7.2-3.68,16,3.72,15.88,4.3-.1.49-6.51-3.98-13.22-1.6-6.34,2.25-8.85,9.16-9.41,8.66Z"/>
    <path class="cls-12" d="M154.1,111.06c-.26-.44,3.46-4.13,8.34-4.04,6.32.12,10.42,6.5,10.16,6.77-.22.23-3.49-3.94-9.06-4.6-5.27-.62-9.19,2.3-9.44,1.87Z"/>
    <path class="cls-12" d="M140.42,77.54c-.34-.31,1.91-4.43,6.16-5.6,5.5-1.52,10.71,2.91,10.55,3.2-.13.25-4.04-2.49-9.04-1.62-4.72.82-7.35,4.32-7.67,4.02Z"/>
    <path class="cls-12" d="M104.36,112.17c-.58-.52,1.19-8.52,6.75-11.36,7.2-3.68,16,3.72,15.88,4.3-.1.49-6.51-3.98-13.22-1.6-6.34,2.25-8.85,9.16-9.41,8.66Z"/>
    <path class="cls-12" d="M64.29,143.84c-.44-.31,1.37-5.57,6.03-7.68,6.03-2.72,12.85,1.64,12.72,2.03-.1.32-5.11-2.27-10.69-.4-5.27,1.76-7.64,6.36-8.07,6.05Z"/>
    <path class="cls-12" d="M109.46,84.97c-.31-.11,1.51-2.74,5.25-4.12,4.84-1.79,9.68-.31,9.55-.12-.11.16-3.71-.64-8.13.71-4.17,1.27-6.36,3.63-6.67,3.53Z"/>
    <rect class="cls-14" x="271.76" y="293.13" width="30.04" height="101.26" rx="12" ry="12"/>
    <rect class="cls-17" x="274.11" y="295.57" width="25.34" height="96.38" rx="12" ry="12"/>
    <g>
      <g>
        <path class="cls-15" d="M179.77,360.94c-5.48,5.27-21.48,18.62-27.82,23.54-.81.63-1.61,1.28-2.44,1.89l-3.16-2.58c.46.25,1.87,1.1,1.44.17,2.33,1.84.7-.07,1.44-4.3.1.05.48-.03.72,0l.27,5.33c11.82-10.63,24.8-20.04,35.67-31.61l.54.94c-2.37,2.06-4.43,4.45-6.68,6.61Z"/>
        <path class="cls-15" d="M111.32,351.32c1.92,2.42,4.48,4.76,6.68,6.96,7.75,7.74,20.98,18.74,29.8,25.69.43.93-.99.08-1.44-.17-1.09-.61-8.92-6.92-10.75-8.42-7.77-6.38-17.8-15.37-24.47-22.68,0-.82-1.56-1.38.18-1.37Z"/>
        <path class="cls-15" d="M149.25,379.67c-.75,4.23.89,6.13-1.44,4.3-8.82-6.95-22.05-17.95-29.8-25.69-2.21-2.2-4.77-4.54-6.68-6.96-.24-.3-.48-.71-.72-1.03-1.07-1.42-2.29-3.25-2.89-4.9-.43-.55-.84.25-.9.26-.42.08-.48.23-.72.09-1.12-.66-6.53-10.18-7.77-13.4-.44-1.14-1.41-3.86-.99-3.69,11.42,15.07,26.49,27.05,40.46,39.86,1.66,1.53,10.74,10.81,11.47,11.17Z"/>
        <path class="cls-15" d="M189.53,349.43c-1.16,1.36-2.39,2.64-3.61,3.95-10.87,11.58-23.85,20.98-35.67,31.61l-.27-5.33c13.69-15.59,36.81-31.75,50.03-46.91,1.59-.73-1.17,3.79-2.35,5.76-2.3,3.83-5.2,7.49-8.13,10.91Z"/>
        <path class="cls-15" d="M189.53,349.43c2.92-3.42,5.83-7.08,8.13-10.91,1.18-1.96,3.94-6.48,2.35-5.76.35-.4,2.91-4.31,2.53-1.8-.14.91-.88,1.13-.9,1.2-.02.07.35.14-.18,1.37-1.59,3.69-6.44,10.84-9.21,13.92-.71.79-1.68,2.09-2.71,1.98Z"/>
        <g>
          <path class="cls-15" d="M205.06,315.59c.96,7.67.44,10.12-2.71,17.27-4.81,10.92-13.43,20.22-22.58,28.09,2.25-2.16,4.31-4.56,6.68-6.61l-.54-.94c1.23-1.31,2.45-2.59,3.61-3.95,1.03.12,2-1.18,2.71-1.98,2.77-3.08,7.63-10.22,9.21-13.92.53-1.23.16-1.31.18-1.37.02-.07.76-.29.9-1.2.38-2.5-2.18,1.4-2.53,1.8-13.22,15.15-36.34,31.32-50.03,46.91-.25-.03-.63.05-.72,0-.73-.36-9.81-9.64-11.47-11.17-13.96-12.81-29.04-24.79-40.46-39.86-.42-.17.56,2.56.99,3.69,1.24,3.22,6.65,12.74,7.77,13.4.24.14.3,0,.72-.09-.09.21-.26.33-.18.6.08.28,3.53,4.55,3.97,4.04.24.32.49.73.72,1.03-1.74,0-.18.55-.18,1.37-9.66-10.57-11.56-14.97-16.44-28.26-1.07-14.35,4.08-27.54,19.06-32.9,14.18-5.08,27.04,4.78,36.12,14.26,10.57-12.71,26.13-21.3,42.45-11.68,8.12,4.79,11.65,12.81,12.73,21.48Z"/>
          <g>
            <path class="cls-15" d="M110.59,350.29c-.44.51-3.89-3.76-3.97-4.04-.08-.27.09-.39.18-.6.06-.01.47-.8.9-.26.6,1.65,1.82,3.48,2.89,4.9Z"/>
            <g>
              <path class="cls-15" d="M129.47,299.26c3.6,1.21,7.28,2.54,10.39,4.72q-5.19-2.36-10.39-4.72Z"/>
              <path class="cls-15" d="M128.02,298.75c.37-.12,1.85.73.63.43-.29-.07-.85-.36-.63-.43Z"/>
            </g>
            <g>
              <path class="cls-15" d="M161.71,311.46c.31-.48.62-.97.9-1.46.68-.75,1.13-.85,1.26-.94-.58.87-1.52,1.6-2.17,2.41Z"/>
              <path class="cls-15" d="M165.86,307.85c-.64.49-1.4.76-1.99,1.2.47-.71,1.23-.91,1.99-1.2Z"/>
              <path class="cls-15" d="M161.71,311.46c-.26.41-.53,1.31-.99,1.72-.07-.76.58-1.21.99-1.72Z"/>
              <path class="cls-15" d="M168.39,306.48c.08-.05.84-.87,1.63-.77-.45.42-1.06.56-1.63.77Z"/>
              <path class="cls-15" d="M167.04,306.99c.11-.01.24-.02.27.09.15.5-1.09.02-.27-.09Z"/>
              <path class="cls-15" d="M165.86,307.85s.21-.56.54-.26c-.24.35-.52.24-.54.26Z"/>
            </g>
            <path class="cls-15" d="M189.71,304.42c-1.02-.74-2.92-1.66-3.97-2.66,1.29.4,2.93,1.79,3.97,2.66Z"/>
            <g>
              <path class="cls-15" d="M112.04,303.56c-.94.79-1.73,1.81-2.71,2.58.99-1.45,1.27-1.62,2.71-2.58Z"/>
              <path class="cls-15" d="M109.33,306.14c-.07.1-.26.86-1.17,2.06-.54-.1,1.05-1.92,1.17-2.06Z"/>
              <path class="cls-15" d="M112.04,303.56c.48-.4.99-1.14,1.81-1.12-.45.56-1.26.76-1.81,1.12Z"/>
              <path class="cls-15" d="M104.99,313.7c.23-.4.35-1.18.81-1.55.1.77-.78,1.47-.81,1.55Z"/>
              <path class="cls-15" d="M106.98,310.09c.17-.36-.05-.32.54-1.03-.24.58-.24.53-.54,1.03Z"/>
              <path class="cls-15" d="M106.26,311.46c.13-.3.2-.41.36-.69.11.62-.34.66-.36.69Z"/>
              <path class="cls-15" d="M106.62,310.77s.07-.21.36-.69c-.07.14-.08.64-.36.69Z"/>
              <path class="cls-15" d="M106.26,311.46s.09.28-.27.52c-.32-.32.26-.49.27-.52Z"/>
              <path class="cls-15" d="M107.52,309.06s-.09-.28.27-.52c.32.32-.26.49-.27.52Z"/>
            </g>
          </g>
        </g>
      </g>
      <path class="cls-11" d="M126.55,294.87c-.02-.47-8.43-2.39-15.87,1.57-3.22,1.71-5.32,4.02-6.37,5.19-2.63,2.94-3.88,5.69-4.23,6.49-2.82,6.48-1.88,13.03-1.31,13.09.48.04.22-4.51,3.39-10.15,1.65-2.94,3.57-4.99,5.47-7.02,2.41-2.58,3.71-3.39,4.52-3.81.42-.22,2.47-1.25,2.47-1.25h0s2.79-1.45,3.91-1.98c4.4-2.08,8.05-1.81,8.03-2.13Z"/>
    </g>
    <g>
      <path class="cls-10" d="M373.91,314.27c33.37-1.56,66.74-3.12,100.11-4.67,3.09-2.08,6.49-4.64,9.96-7.79,2.59-2.35,4.83-4.68,6.75-6.86,8.05-.76,16.1-1.52,24.16-2.29"/>
      <line class="cls-10" x1="472.11" y1="355.76" x2="379.14" y2="355.76"/>
      <line class="cls-10" x1="474.02" y1="309.6" x2="472.09" y2="356.72"/>
      <line class="cls-10" x1="375.56" y1="326.85" x2="472.53" y2="323.85"/>
      <line class="cls-10" x1="378.33" y1="341.33" x2="472.61" y2="340.39"/>
      <line class="cls-10" x1="373.91" y1="314.27" x2="379.14" y2="355.76"/>
      <line class="cls-10" x1="405.8" y1="312.95" x2="407.68" y2="355.45"/>
      <line class="cls-10" x1="443.5" y1="310.34" x2="443.5" y2="355.56"/>
      <path class="cls-10" d="M472.51,356.1c1.03-.26,4.22-.93,7.45.93.65.37,2.07,1.22,3.19,2.98,1.73,2.72,2.21,6.75.53,9.74-.25.44-1.23,2.2-3.08,2.95-.31.13-1.3.22-3.26.42-1.96.19-4.02.37-4.02.37h0c-3.72.22-6.75.29-8.96.39-1.07.05-2.13.07-3.2.07-6.65-.05-13.29.28-19.94.39-2.91.05-5.07.09-6.9.12-6.33.12-10.91.22-12.08.24-4.74.1-14.02.24-33.96.37"/>
      <path class="cls-10" d="M385.44,378.3c-3.11,2.85-3.15,6.81-3.15,7.12,0,.74.04,2.68,1.35,4.66,1.46,2.22,3.62,3.1,4.9,3.62,1.2.49,4.87,2,8.92.53.71-.26,2.9-1.08,4.51-3.21,2.79-3.68,1.44-8.08,1.12-9.12-.36-1.19-.8-2.61-2.05-3.86-3.51-3.52-11.35-3.64-15.59.26Z"/>
      <path class="cls-10" d="M443.2,377.27c-3.11,2.85-3.15,6.81-3.15,7.12,0,.74.04,2.68,1.35,4.66,1.46,2.22,3.62,3.1,4.9,3.62,1.2.49,4.87,2,8.92.53.71-.26,2.9-1.08,4.51-3.21,2.79-3.68,1.44-8.08,1.12-9.12-.36-1.19-.8-2.61-2.05-3.86-3.51-3.52-11.35-3.64-15.59.26Z"/>
    </g>
  </g>
</svg>