<?xml version="1.0" encoding="UTF-8"?>
<svg id="Layer_2" data-name="Layer 2" xmlns="http://www.w3.org/2000/svg" width="677" height="916.02" viewBox="0 0 677 916.02">
  <defs>
    <style>
      .cls-1 {
        letter-spacing: -.02em;
      }

      .cls-2 {
        letter-spacing: -.02em;
      }

      .cls-3 {
        letter-spacing: -.02em;
      }

      .cls-4 {
        letter-spacing: -.02em;
      }

      .cls-5 {
        font-size: 30px;
      }

      .cls-5, .cls-6, .cls-7 {
        font-family: Operetta12-DemiBold, 'Operetta 12';
        font-weight: 300;
      }

      .cls-5, .cls-7 {
        fill: #ff7600;
      }

      .cls-6 {
        fill: none;
        stroke: #ff7600;
      }

      .cls-6, .cls-8 {
        stroke-miterlimit: 10;
      }

      .cls-6, .cls-7 {
        font-size: 100px;
      }

      .cls-9 {
        letter-spacing: -.03em;
      }

      .cls-10 {
        letter-spacing: -.02em;
      }

      .cls-11 {
        letter-spacing: -.04em;
      }

      .cls-12 {
        letter-spacing: -.04em;
      }

      .cls-13 {
        letter-spacing: -.04em;
      }

      .cls-14 {
        letter-spacing: -.04em;
      }

      .cls-8 {
        fill: #ffa000;
        stroke: #ff602a;
      }

      .cls-15 {
        letter-spacing: -.06em;
      }

      .cls-16 {
        letter-spacing: -.06em;
      }

      .cls-17 {
        letter-spacing: -.02em;
      }

      .cls-18 {
        fill: #fcf9d8;
        stroke-width: 0px;
      }
    </style>
  </defs>
  <g id="Layer_2-2" data-name="Layer 2">
    <g id="Layer_1-2" data-name="Layer 1-2">
      <rect class="cls-18" width="677" height="916.02"/>
    </g>
    <text class="cls-7" transform="translate(43.95 715.89)"><tspan class="cls-2" x="0" y="0">P</tspan><tspan class="cls-13" x="63.65" y="0">O</tspan><tspan class="cls-16" x="137.95" y="0">R</tspan><tspan class="cls-2" x="203.75" y="0">T</tspan><tspan class="cls-17" x="271.95" y="0">F</tspan><tspan class="cls-13" x="331" y="0">O</tspan><tspan class="cls-3" x="405.3" y="0">L</tspan><tspan class="cls-13" x="468.15" y="0">I</tspan><tspan class="cls-2" x="501.9" y="0">O</tspan></text>
    <text class="cls-6" transform="translate(45.29 656.38)"><tspan class="cls-2" x="0" y="0">P</tspan><tspan class="cls-13" x="63.65" y="0">O</tspan><tspan class="cls-16" x="137.95" y="0">R</tspan><tspan class="cls-2" x="203.75" y="0">T</tspan><tspan class="cls-17" x="271.95" y="0">F</tspan><tspan class="cls-13" x="331" y="0">O</tspan><tspan class="cls-3" x="405.3" y="0">L</tspan><tspan class="cls-13" x="468.15" y="0">I</tspan><tspan class="cls-2" x="501.9" y="0">O</tspan></text>
    <text class="cls-6" transform="translate(42.7 776.81)"><tspan class="cls-2" x="0" y="0">P</tspan><tspan class="cls-13" x="63.65" y="0">O</tspan><tspan class="cls-15" x="137.95" y="0">R</tspan><tspan class="cls-2" x="203.75" y="0">T</tspan><tspan class="cls-17" x="271.95" y="0">F</tspan><tspan class="cls-14" x="331" y="0">O</tspan><tspan class="cls-2" x="405.3" y="0">L</tspan><tspan class="cls-13" x="468.15" y="0">I</tspan><tspan class="cls-2" x="501.9" y="0">O</tspan></text>
    <text class="cls-5" transform="translate(42.7 827.69)"><tspan class="cls-4" x="0" y="0">S</tspan><tspan class="cls-10" x="17.59" y="0">o</tspan><tspan class="cls-4" x="33.22" y="0">fia </tspan><tspan class="cls-9" x="73.51" y="0">D</tspan><tspan class="cls-4" x="96.06" y="0">alsgaa</tspan><tspan class="cls-11" x="175.86" y="0">r</tspan><tspan class="cls-4" x="187.99" y="0" xml:space="preserve">d   20</tspan><tspan class="cls-12" x="258.52" y="0">2</tspan><tspan class="cls-1" x="272.28" y="0">4</tspan></text>
    <g>
      <path class="cls-8" d="M279.92,220.26c-.92,2.38-5.81,1.12-13.94,6.09-1.56.95-3.06,1.87-4.81,3.47-4.55,4.18-5.08,7.8-6.89,7.77-1.87-.04-2.25-3.86-4.85-8.33-1.61-2.77-3.3-4.25-14.91-12.33-12.28-8.55-12.06-8.04-13.17-9.33-5.26-6.09-6.85-13.43-7.97-18.66-1.32-6.1-.47-7.06-2.08-12.66-.95-3.33-2.39-8.35-5.89-12.99-5.79-7.7-11.8-7.76-21.84-16.66-.82-.73-6.22-5.55-6.22-5.55h0c1.9,3.12-3.8-6.24-5.56-9.44-.13-.24-.24-.44-.29-.53-.49-.94-1.48-3-1.95-5.79-.35-2.08-.79-6.77.16-7.01,1.2-.3,2.25,7.16,8.32,14.66,1.6,1.97,6.62,7.76,14.91,11.33,4.6,1.98,5.08,1.08,10.4,3.33,2.78,1.18,8.28,3.57,13.17,8.33,4.62,4.5,6.64,9.11,9.36,15.33,3.55,8.12,2.58,9.68,5.89,14.66,3.47,5.22,7.66,8.23,9.71,9.66,7.68,5.39,11.26,4.01,20.45,8.33,9.91,4.65,19.44,12.68,18.03,16.33Z"/>
      <path class="cls-8" d="M410.11,246.52c-2.55-.67-1.69-5.46-7.58-12.79-1.13-1.4-2.21-2.76-4.04-4.29-4.75-3.98-8.55-4.15-8.68-5.89-.13-1.79,3.8-2.51,8.19-5.41,2.72-1.79,4.11-3.55,11.41-15.39,7.73-12.54,7.23-12.28,8.46-13.46,5.83-5.59,13.29-7.78,18.6-9.34,6.2-1.82,7.27-1.1,12.93-3.15,3.36-1.22,8.43-3.05,12.92-6.83,7.44-6.25,6.96-12,15.26-22.43.68-.85,5.19-6.47,5.19-6.47h0c-3.06,2.1,6.12-4.21,9.27-6.19.24-.15.43-.27.52-.32.92-.56,2.97-1.69,5.82-2.4,2.13-.53,6.95-1.37,7.27-.49.42,1.12-7.21,2.81-14.43,9.3-1.9,1.71-7.43,7.05-10.37,15.3-1.63,4.58-.65,4.97-2.5,10.26-.97,2.77-2.94,8.26-7.43,13.37-4.24,4.83-8.84,7.19-15.02,10.36-8.09,4.14-9.79,3.36-14.65,6.98-5.09,3.8-7.82,8.09-9.12,10.17-4.89,7.84-3.13,11.14-6.76,20.34-3.91,9.91-11.36,19.77-15.27,18.75Z"/>
      <path class="cls-8" d="M235.27,286.84c1.42,2.14-2.58,5.13-3.37,14.36-.15,1.77-.3,3.47-.02,5.78.72,6.01,3.41,8.61,2.28,9.97-1.16,1.41-4.57-.6-9.84-1.31-3.27-.44-5.52-.04-19.22,3.98-14.5,4.26-13.95,4.39-15.69,4.46-8.23.36-15.28-2.86-20.29-5.15-5.85-2.67-6.14-3.9-11.76-6.05-3.34-1.28-8.37-3.2-14.34-3.33-9.88-.2-13.56,4.36-27,6.68-1.1.19-8.36,1.42-8.36,1.42h0c3.74.43-7.47-.85-11.19-1.44-.28-.04-.51-.08-.61-.1-1.07-.19-3.38-.68-5.98-2-1.94-.99-6.1-3.48-5.72-4.35.48-1.1,7.3,2.6,17.18,2.47,2.6-.03,10.43-.39,18.39-4.59,4.42-2.33,3.96-3.25,9.04-5.96,2.65-1.42,7.96-4.19,14.86-5.07,6.52-.83,11.57.41,18.36,2.08,8.88,2.18,9.59,3.86,15.72,4.33,6.43.49,11.45-.91,13.87-1.61,9.11-2.63,10.12-6.21,19.25-10.65,9.84-4.79,22.25-7.25,24.42-3.96Z"/>
      <path class="cls-8" d="M316.36,214.6c2.23,1.36,5.33-2.48,14.94-3.26,1.84-.15,3.61-.29,6.02-.03,6.26.68,8.96,3.26,10.38,2.18,1.46-1.12-.64-4.39-1.37-9.46-.46-3.14-.05-5.31,4.12-18.48,4.41-13.95,4.55-13.42,4.62-15.09.36-7.91-3-14.68-5.39-19.5-2.79-5.62-4.06-5.9-6.31-11.29-1.33-3.2-3.34-8.04-3.48-13.78-.22-9.5,4.52-13.04,6.92-25.96.2-1.06,1.46-8.04,1.46-8.04h0c.45,3.59-.9-7.18-1.51-10.75-.05-.27-.08-.49-.1-.59-.2-1.03-.71-3.25-2.09-5.75-1.03-1.86-3.63-5.85-4.54-5.49-1.14.46,2.71,7.01,2.6,16.51-.03,2.5-.4,10.03-4.75,17.69-2.42,4.25-3.37,3.81-6.19,8.7-1.47,2.55-4.35,7.66-5.25,14.29-.85,6.27.44,11.12,2.19,17.65,2.28,8.53,4.03,9.21,4.53,15.1.52,6.18-.93,11.01-1.65,13.34-2.72,8.76-6.44,9.74-11.05,18.52-4.97,9.46-7.51,21.4-4.09,23.48Z"/>
      <path class="cls-8" d="M247.09,359.18c2.55.67,1.69,5.46,7.57,12.8,1.12,1.4,2.21,2.76,4.04,4.29,4.74,3.98,8.55,4.16,8.67,5.9.13,1.79-3.8,2.51-8.19,5.4-2.72,1.79-4.11,3.54-11.42,15.38-7.74,12.53-7.24,12.27-8.47,13.45-5.83,5.59-13.3,7.77-18.61,9.32-6.2,1.81-7.27,1.09-12.93,3.14-3.36,1.21-8.43,3.05-12.93,6.82-7.45,6.24-6.97,12-15.28,22.41-.68.85-5.19,6.46-5.19,6.46h0c3.06-2.1-6.12,4.21-9.28,6.18-.24.15-.43.27-.52.32-.92.56-2.98,1.69-5.83,2.39-2.13.53-6.95,1.37-7.28.48-.42-1.12,7.22-2.8,14.44-9.29,1.9-1.71,7.44-7.04,10.39-15.29,1.64-4.58.66-4.97,2.51-10.26.97-2.77,2.95-8.25,7.44-13.36,4.24-4.83,8.84-7.18,15.03-10.35,8.09-4.14,9.79-3.35,14.66-6.97,5.1-3.79,7.83-8.08,9.13-10.17,4.89-7.84,3.14-11.14,6.78-20.33,3.92-9.91,11.38-19.76,15.28-18.73Z"/>
      <path class="cls-8" d="M390.3,381c.83-2.41,5.76-1.33,13.7-6.57,1.52-1,2.99-1.97,4.68-3.64,4.39-4.34,4.78-7.98,6.59-8,1.87-.03,2.4,3.78,5.17,8.15,1.71,2.71,3.46,4.13,15.37,11.79,12.6,8.11,12.36,7.61,13.52,8.86,5.49,5.9,7.36,13.18,8.68,18.36,1.55,6.05.74,7.03,2.56,12.58,1.08,3.29,2.71,8.26,6.39,12.78,6.09,7.48,12.09,7.34,22.46,15.88.85.7,6.43,5.33,6.43,5.33h0c-2.02-3.05,4.04,6.1,5.92,9.24.14.24.25.43.31.52.53.92,1.59,2.95,2.17,5.72.43,2.07,1.05,6.74.11,7.01-1.19.34-2.52-7.08-8.88-14.36-1.67-1.91-6.92-7.52-15.33-10.79-4.67-1.82-5.12-.9-10.52-2.96-2.82-1.08-8.41-3.27-13.48-7.86-4.79-4.33-6.98-8.87-9.94-14.99-3.86-7.99-2.95-9.58-6.45-14.44-3.67-5.1-7.97-7.95-10.07-9.31-7.88-5.12-11.4-3.61-20.76-7.6-10.08-4.3-19.91-11.98-18.64-15.68Z"/>
      <path class="cls-8" d="M437.88,317.88c-1.34-2.19,2.76-5.04,3.9-14.24.22-1.76.43-3.46.24-5.78-.5-6.03-3.09-8.72-1.91-10.04,1.21-1.37,4.54.76,9.78,1.64,3.25.55,5.52.23,19.36-3.32,14.65-3.76,14.1-3.91,15.84-3.93,8.23-.07,15.16,3.38,20.09,5.84,5.75,2.87,5.99,4.1,11.53,6.45,3.29,1.39,8.24,3.49,14.2,3.81,9.87.54,13.71-3.89,27.23-5.75,1.1-.15,8.41-1.13,8.41-1.13h0c-3.72-.55,7.44,1.11,11.13,1.82.28.05.5.1.61.12,1.07.22,3.36.79,5.91,2.2,1.9,1.05,5.96,3.69,5.55,4.54-.52,1.08-7.2-2.85-17.08-3.06-2.6-.06-10.44.04-18.55,3.95-4.5,2.17-4.08,3.11-9.26,5.65-2.71,1.33-8.11,3.92-15.04,4.56-6.54.6-11.54-.81-18.27-2.7-8.79-2.48-9.44-4.19-15.55-4.87-6.4-.71-11.48.52-13.92,1.13-9.2,2.32-10.35,5.86-19.63,9.98-10.01,4.45-22.5,6.48-24.55,3.12Z"/>
      <path class="cls-8" d="M344.84,390.9c-2.24-1.35-5.32,2.51-14.92,3.32-1.84.16-3.61.31-6.02.06-6.26-.66-8.97-3.22-10.39-2.13-1.46,1.12.66,4.38,1.42,9.45.47,3.14.07,5.31-4.03,18.5-4.34,13.97-4.48,13.44-4.55,15.11-.32,7.91,3.07,14.67,5.48,19.47,2.81,5.61,4.09,5.88,6.36,11.27,1.35,3.2,3.38,8.02,3.55,13.76.27,9.5-4.45,13.06-6.79,25.99-.19,1.06-1.43,8.05-1.43,8.05h0c-.47-3.59.93,7.18,1.56,10.74.05.27.09.49.1.59.2,1.03.72,3.25,2.12,5.74,1.04,1.86,3.66,5.84,4.56,5.47,1.14-.47-2.75-7-2.67-16.5.02-2.5.35-10.03,4.66-17.71,2.4-4.26,3.35-3.83,6.15-8.72,1.46-2.56,4.32-7.68,5.18-14.31.82-6.27-.5-11.12-2.27-17.64-2.32-8.52-4.07-9.19-4.6-15.08-.55-6.17.88-11.01,1.59-13.34,2.68-8.77,6.4-9.77,10.96-18.57,4.92-9.49,7.41-21.43,3.98-23.5Z"/>
      <path class="cls-8" d="M243.26,246.84c.52,1.8-2.97,3.1-5.59,9.45-.5,1.21-.99,2.39-1.31,4.08-.84,4.39.48,6.76-.62,7.5-1.13.76-3.09-1.35-6.65-2.92-2.21-.97-3.89-1.15-14.45-1.09-11.19.06-10.82.26-12.07-.03-5.88-1.42-10.14-5.12-13.16-7.75-3.53-3.07-3.46-3.99-6.94-6.65-2.07-1.58-5.19-3.96-9.37-5.26-6.92-2.15-10.54.32-20.54-.77-.82-.09-6.22-.7-6.22-.7h0c2.54,1.06-5.08-2.12-7.57-3.28-.19-.09-.34-.16-.41-.19-.72-.35-2.23-1.16-3.77-2.63-1.15-1.09-3.52-3.69-3.06-4.23.59-.68,4.57,3.31,11.57,5.23,1.84.5,7.45,1.84,14,.5,3.64-.74,3.52-1.49,7.71-2.37,2.19-.46,6.56-1.34,11.62-.56,4.78.74,8.07,2.64,12.49,5.19,5.78,3.34,5.9,4.67,10.12,6.25,4.42,1.65,8.28,1.68,10.15,1.68,7.02,0,8.53-2.32,15.97-3.6,8.01-1.38,17.32-.6,18.12,2.16Z"/>
      <path class="cls-8" d="M230.01,327.63c1.54,1.14-.45,4.19,1.4,10.78.35,1.26.7,2.48,1.49,4.02,2.06,4,4.59,5.14,4.17,6.36-.44,1.26-3.31.69-7.14,1.48-2.37.49-3.83,1.32-12.26,7.44-8.92,6.48-8.51,6.44-9.69,6.91-5.6,2.25-11.31,1.73-15.37,1.36-4.74-.43-5.26-1.21-9.7-1.34-2.64-.08-6.62-.19-10.78,1.18-6.89,2.26-8.24,6.32-16.94,11.2-.71.4-5.42,3.02-5.42,3.02h0c2.69-.61-5.39,1.23-8.11,1.72-.21.04-.37.07-.45.08-.79.13-2.52.35-4.66.07-1.6-.21-5.12-.94-5.08-1.63.05-.88,5.72.03,12.52-2.46,1.79-.65,7.11-2.81,11.53-7.66,2.45-2.69,1.9-3.22,4.7-6.33,1.47-1.63,4.42-4.85,8.96-7.13,4.29-2.16,8.11-2.53,13.24-3.02,6.71-.65,7.63.35,11.99-.82,4.57-1.22,7.68-3.41,9.18-4.49,5.62-4.04,5.39-6.77,10.55-12.07,5.56-5.71,13.5-10.44,15.86-8.69Z"/>
      <path class="cls-8" d="M280.22,385.01c1.94-.15,2.59,3.39,8.58,7.08,1.14.71,2.25,1.39,3.91,2.02,4.32,1.63,6.99.84,7.54,2.02.56,1.22-1.97,2.65-4.25,5.71-1.41,1.9-1.91,3.45-3.88,13.43-2.08,10.56-1.8,10.26-2.34,11.38-2.57,5.28-7.17,8.58-10.43,10.93-3.81,2.74-4.74,2.5-8.12,5.28-2.01,1.65-5.03,4.14-7.16,7.83-3.52,6.12-1.69,10.01-4.71,19.23-.25.75-1.9,5.73-1.9,5.73h0c1.57-2.19-3.13,4.39-4.8,6.51-.13.16-.23.29-.27.35-.49.61-1.62,1.89-3.4,3.06-1.33.87-4.45,2.61-4.9,2.08-.58-.68,4.26-3.67,7.55-9.91.87-1.64,3.3-6.68,3.19-13.12-.06-3.58-.84-3.61-.94-7.73-.05-2.15-.12-6.44,1.65-11.07,1.67-4.37,4.24-7.11,7.69-10.79,4.51-4.81,5.9-4.67,8.31-8.35,2.53-3.86,3.3-7.49,3.66-9.25,1.34-6.62-.74-8.49-.63-15.75.12-7.82,2.7-16.45,5.67-16.68Z"/>
      <path class="cls-8" d="M357.37,393.31c1.3-1.39,4.31.74,11.29-.55,1.33-.25,2.63-.49,4.28-1.13,4.3-1.68,5.67-4.02,6.91-3.53,1.28.51.47,3.23,1.02,6.96.34,2.31,1.09,3.77,6.82,12.3,6.07,9.03,6.06,8.63,6.46,9.79,1.92,5.53.97,10.97.29,14.83-.79,4.51-1.64,4.95-2.1,9.2-.27,2.52-.68,6.33.43,10.42,1.84,6.77,5.96,8.36,10.39,17.05.36.71,2.74,5.41,2.74,5.41h0c-.44-2.63.88,5.26,1.2,7.9.02.2.04.36.05.43.08.77.18,2.44-.27,4.47-.34,1.52-1.35,4.84-2.06,4.75-.91-.11.45-5.48-1.64-12.19-.55-1.76-2.4-7.02-7.1-11.61-2.61-2.55-3.2-2.05-6.23-4.97-1.58-1.53-4.71-4.59-6.74-9.11-1.93-4.27-2.03-7.96-2.17-12.91-.18-6.48.92-7.29.03-11.56-.93-4.47-2.98-7.61-3.99-9.13-3.78-5.68-6.63-5.66-11.75-10.99-5.52-5.75-9.84-13.71-7.85-15.84Z"/>
      <path class="cls-8" d="M426.27,354.09c-.24-1.85,3.4-2.65,6.95-8.57.68-1.13,1.34-2.23,1.91-3.85,1.49-4.23.54-6.76,1.74-7.33,1.24-.59,2.85,1.77,6.14,3.81,2.04,1.27,3.67,1.67,14.14,3.08,11.08,1.49,10.75,1.24,11.94,1.71,5.61,2.22,9.26,6.47,11.86,9.49,3.03,3.53,2.82,4.43,5.87,7.54,1.81,1.85,4.54,4.64,8.48,6.5,6.53,3.09,10.48,1.14,20.21,3.61.8.2,6.05,1.55,6.05,1.55h0c-2.35-1.4,4.71,2.8,7,4.3.17.11.31.2.38.25.66.45,2.04,1.46,3.34,3.12.97,1.24,2.93,4.14,2.39,4.61-.68.59-4.02-3.91-10.66-6.78-1.75-.75-7.09-2.85-13.78-2.43-3.71.23-3.71.98-7.99,1.27-2.24.15-6.69.42-11.58-1.06-4.62-1.4-7.59-3.73-11.58-6.87-5.22-4.1-5.14-5.44-9.07-7.58-4.13-2.25-7.94-2.81-9.79-3.07-6.94-.97-8.79,1.12-16.34,1.35-8.14.25-17.23-1.81-17.6-4.65Z"/>
      <path class="cls-8" d="M425.49,274.59c-1.56-1.11.35-4.19-1.64-10.75-.38-1.25-.75-2.47-1.58-3.99-2.15-3.95-4.7-5.05-4.31-6.28.41-1.27,3.3-.76,7.11-1.63,2.36-.54,3.8-1.4,12.09-7.69,8.78-6.66,8.36-6.61,9.53-7.11,5.54-2.36,11.27-1.96,15.34-1.68,4.75.33,5.28,1.1,9.73,1.14,2.64.02,6.62.05,10.75-1.4,6.83-2.4,8.1-6.49,16.68-11.55.7-.41,5.35-3.13,5.35-3.13h0c-2.68.67,5.36-1.34,8.07-1.89.21-.04.37-.07.45-.09.79-.15,2.51-.4,4.65-.16,1.6.18,5.14.83,5.12,1.52-.03.88-5.72.09-12.47,2.72-1.77.69-7.05,2.96-11.35,7.89-2.39,2.74-1.82,3.26-4.56,6.43-1.43,1.66-4.31,4.94-8.8,7.31-4.24,2.25-8.05,2.69-13.17,3.3-6.69.79-7.64-.19-11.97,1.06-4.54,1.31-7.6,3.57-9.07,4.68-5.52,4.16-5.24,6.88-10.28,12.29-5.43,5.83-13.27,10.72-15.66,9.01Z"/>
      <path class="cls-8" d="M378.25,220.53c-1.92.26-2.8-3.23-9.01-6.57-1.19-.64-2.33-1.26-4.03-1.78-4.41-1.38-7.04-.43-7.65-1.58-.63-1.18,1.8-2.76,3.88-5.95,1.29-1.97,1.69-3.55,3.02-13.63,1.41-10.67,1.15-10.35,1.62-11.49,2.24-5.42,6.61-8.99,9.72-11.52,3.63-2.96,4.57-2.77,7.77-5.74,1.9-1.76,4.76-4.42,6.65-8.24,3.13-6.32,1.05-10.09,3.49-19.47.2-.77,1.54-5.83,1.54-5.83h0c-1.43,2.28,2.85-4.56,4.38-6.78.12-.17.21-.3.25-.36.45-.64,1.49-1.98,3.2-3.25,1.28-.95,4.27-2.87,4.76-2.36.62.65-4.02,3.92-6.91,10.34-.76,1.69-2.88,6.86-2.35,13.28.29,3.56,1.07,3.55,1.43,7.66.19,2.15.52,6.42-.95,11.14-1.39,4.46-3.78,7.34-7,11.22-4.2,5.07-5.59,5.01-7.77,8.82-2.29,4-2.82,7.67-3.07,9.45-.92,6.69,1.28,8.43,1.62,15.69.37,7.82-1.66,16.58-4.61,16.98Z"/>
      <path class="cls-8" d="M306.54,215.37c-1.45,1.24-4.2-1.19-11.29-.65-1.36.1-2.67.2-4.38.67-4.47,1.21-6.1,3.39-7.27,2.77-1.21-.64-.1-3.26-.21-7.02-.07-2.33-.64-3.86-5.36-12.95-4.99-9.62-5.02-9.22-5.29-10.42-1.27-5.7.31-11,1.43-14.77,1.31-4.4,2.2-4.75,3.15-8.92.56-2.48,1.41-6.22.77-10.4-1.05-6.92-4.95-8.95-8.35-18.06-.28-.74-2.09-5.67-2.09-5.67h0c.13,2.66-.27-5.32-.28-7.98,0-.2,0-.36,0-.44.01-.77.1-2.44.79-4.41.51-1.47,1.9-4.67,2.6-4.5.89.21-1.08,5.4.22,12.29.34,1.81,1.57,7.24,5.72,12.3,2.3,2.81,2.94,2.38,5.61,5.61,1.4,1.69,4.15,5.06,5.65,9.77,1.42,4.45,1.1,8.12.66,13.06-.57,6.46-1.75,7.15-1.36,11.48.41,4.54,2.08,7.89,2.91,9.49,3.1,6.05,5.93,6.33,10.41,12.18,4.82,6.3,8.2,14.67,5.98,16.58Z"/>
      <path class="cls-8" d="M407.15,350.17c1.17.71,5.59-4.17,6.27-4.93,4.68-5.22,7.04-10.37,7.98-12.61,2.5-5.95,3.17-10.84,3.66-14.59.29-2.25,1.12-8.86.21-16.14-1.34-10.79-5.87-18.17-11.85-27.92-7.84-12.78-15.96-20.93-21.1-26.04-6.22-6.17-10.06-9.92-16.59-13.63-2.06-1.17-10.19-5.64-22.04-7.67-8.76-1.5-15.28-.94-25.25-.08-6.25.54-13.4,1.19-22.4,3.71-3.86,1.08-8.6,2.96-18.09,6.7-9.51,3.76-14.29,5.6-17.39,7.4-7.52,4.35-13.24,7.66-17.11,14.25-2.54,4.33-3.31,9.01-4.85,18.36-1.06,6.45-1.34,11.45-1.43,13.16-.65,13.41,1.28,23.85,2,27.41,1.44,7.1,3.4,16.77,9.7,27.68,3.64,6.32,9.56,16.57,21.39,23.85,13.44,8.27,27.08,8.11,41.63,7.95,7.91-.09,23.18-.76,40.49-7.13,9.38-3.45,16.82-6.29,22.81-13.7,6.02-7.45,7.3-15.47,7.98-19.73,1.75-10.93-.77-19.58-2.57-25.49-2.61-8.61-6.31-14.66-8.27-17.82-2.8-4.52-6.12-8.51-12.83-16.45-3.36-3.98-5.13-5.84-8.05-7.5-1.24-.71-4.43-2.37-11.55-3.23-9.79-1.18-17.63.31-23.18,1.41-1.62.32-7.71,1.57-15.4,4.39-8.76,3.21-14.56,5.33-19.78,10.75-1.91,1.98-4.66,4.83-6.17,9.26-2.76,8.07.51,15.54,5.7,26.31,4.59,9.53,6.89,14.29,11.41,17.82,7.33,5.72,17.31,7.96,25.95,6.3,6.26-1.2,10.76-4.25,12.55-5.48,2.74-1.89,3.64-3.29,3.99-3.84,1.88-2.92,1.84-5.82,1.78-9.82-.04-2.69-.09-6.23-1.49-6.63-.61-.17-1.07.35-3.12,1.78-1.9,1.33-3.77,2.47-4.83,3.03-2.95,1.54-5.8,1.72-6.59,1.77-1.68.09-5.8.38-8.84-2.19-3.25-2.75-3.55-6.7-3.71-8.77-.07-.92-.58-9.51,5.99-14.8,8.77-7.06,21.42-1.21,22.81-.55,8.21,3.94,11.46,11.19,12.83,14.25,1.23,2.75,4.74,10.9,1.71,20.28-2.87,8.87-9.85,13.45-14.83,16.72-9.64,6.32-19.07,7.16-24.81,7.67-5.79.52-9.17-.36-9.98-.55-6.46-1.48-10.86-4.86-13.84-7.2-3.04-2.38-4.93-4.5-7.77-7.67-1.54-1.73-5.01-5.6-7.77-9.89-3.96-6.15-5.38-11.48-7.41-19.37-3.04-11.82-4.56-17.73-3.3-25.42.58-3.5,1.73-10.04,6.72-16.24,2.18-2.71,6.53-6.76,18.25-11.51,15.57-6.31,29.83-6.75,37.07-6.58,11.98.29,28.99.71,44.2,11.79,11.19,8.15,16.22,18.3,22.24,30.42,1.96,3.96,6.95,14.61,8.84,27.68.99,6.82,1.71,11.83.29,16.45-.91,2.96-1.29,6.04-2,9.05-.49,2.08-.78,3.26-.29,3.56Z"/>
    </g>
  </g>
</svg>