<?xml version="1.0" encoding="UTF-8"?>
<svg id="Layer_2" data-name="Layer 2" xmlns="http://www.w3.org/2000/svg" width="1431.88" height="608.98" viewBox="0 0 1431.88 608.98">
  <defs>
    <style>
      .cls-1 {
        letter-spacing: -.02em;
      }

      .cls-2 {
        letter-spacing: -.02em;
      }

      .cls-3 {
        letter-spacing: -.02em;
      }

      .cls-4 {
        letter-spacing: -.03em;
      }

      .cls-5 {
        fill: none;
        stroke: #ff7600;
      }

      .cls-5, .cls-6 {
        stroke-miterlimit: 10;
      }

      .cls-5, .cls-7 {
        font-size: 120px;
      }

      .cls-5, .cls-7, .cls-8 {
        font-family: Operetta12-DemiBold, 'Operetta 12';
        font-weight: 300;
      }

      .cls-9 {
        letter-spacing: -.02em;
      }

      .cls-10 {
        letter-spacing: -.04em;
      }

      .cls-11 {
        letter-spacing: -.04em;
      }

      .cls-12 {
        letter-spacing: -.04em;
      }

      .cls-13 {
        letter-spacing: -.04em;
      }

      .cls-6 {
        fill: #ffa000;
        stroke: #ff602a;
      }

      .cls-14 {
        letter-spacing: -.06em;
      }

      .cls-7, .cls-8 {
        fill: #ff7600;
      }

      .cls-15 {
        letter-spacing: -.02em;
      }

      .cls-8 {
        font-size: 40px;
      }

      .cls-16 {
        letter-spacing: -.02em;
      }

      .cls-17 {
        fill: #fcf9d8;
        stroke-width: 0px;
      }
    </style>
  </defs>
  <g id="Layer_2-2" data-name="Layer 2">
    <g id="Layer_1-2" data-name="Layer 1-2">
      <rect class="cls-17" x="0" width="1431.88" height="608.98"/>
    </g>
    <text class="cls-7" transform="translate(41.35 334)"><tspan class="cls-1" x="0" y="0">P</tspan><tspan class="cls-12" x="76.38" y="0">O</tspan><tspan class="cls-14" x="165.54" y="0">R</tspan><tspan class="cls-1" x="244.5" y="0">T</tspan><tspan class="cls-16" x="326.34" y="0">F</tspan><tspan class="cls-13" x="397.2" y="0">O</tspan><tspan class="cls-1" x="486.36" y="0">L</tspan><tspan class="cls-12" x="561.78" y="0">I</tspan><tspan class="cls-3" x="602.28" y="0">O</tspan></text>
    <text class="cls-5" transform="translate(42.7 268.07)"><tspan class="cls-1" x="0" y="0">P</tspan><tspan class="cls-12" x="76.38" y="0">O</tspan><tspan class="cls-14" x="165.54" y="0">R</tspan><tspan class="cls-1" x="244.5" y="0">T</tspan><tspan class="cls-16" x="326.34" y="0">F</tspan><tspan class="cls-13" x="397.2" y="0">O</tspan><tspan class="cls-1" x="486.36" y="0">L</tspan><tspan class="cls-12" x="561.78" y="0">I</tspan><tspan class="cls-3" x="602.28" y="0">O</tspan></text>
    <text class="cls-5" transform="translate(42.7 405.13)"><tspan class="cls-1" x="0" y="0">P</tspan><tspan class="cls-12" x="76.38" y="0">O</tspan><tspan class="cls-14" x="165.54" y="0">R</tspan><tspan class="cls-1" x="244.5" y="0">T</tspan><tspan class="cls-15" x="326.34" y="0">F</tspan><tspan class="cls-12" x="397.2" y="0">O</tspan><tspan class="cls-1" x="486.36" y="0">L</tspan><tspan class="cls-12" x="561.78" y="0">I</tspan><tspan class="cls-3" x="602.28" y="0">O</tspan></text>
    <text class="cls-8" transform="translate(42.7 484.89)"><tspan class="cls-3" x="0" y="0">S</tspan><tspan class="cls-9" x="23.46" y="0">o</tspan><tspan class="cls-2" x="44.3" y="0">fia </tspan><tspan class="cls-4" x="98.02" y="0">D</tspan><tspan class="cls-2" x="128.08" y="0">alsgaa</tspan><tspan class="cls-10" x="234.47" y="0">r</tspan><tspan class="cls-3" x="250.66" y="0" xml:space="preserve">d   20</tspan><tspan class="cls-11" x="344.69" y="0">2</tspan><tspan class="cls-3" x="363.03" y="0">4</tspan></text>
    <g>
      <path class="cls-6" d="M1045.36,226.63c-1.04,2.66-6.52,1.25-15.65,6.8-1.75,1.06-3.44,2.09-5.4,3.88-5.11,4.67-5.7,8.72-7.74,8.68-2.1-.04-2.53-4.32-5.45-9.31-1.81-3.09-3.7-4.75-16.73-13.77-13.78-9.55-13.53-8.99-14.78-10.42-5.9-6.8-7.68-15.01-8.95-20.85-1.48-6.81-.53-7.88-2.33-14.15-1.07-3.72-2.68-9.32-6.61-14.52-6.5-8.6-13.24-8.67-24.5-18.61-.92-.81-6.98-6.21-6.98-6.21h0c2.13,3.49-4.27-6.97-6.24-10.55-.15-.27-.27-.49-.32-.59-.55-1.05-1.66-3.35-2.19-6.47-.39-2.33-.88-7.57.18-7.83,1.35-.33,2.52,8,9.33,16.38,1.79,2.2,7.43,8.67,16.73,12.66,5.16,2.21,5.71,1.2,11.67,3.72,3.12,1.32,9.29,3.99,14.78,9.31,5.18,5.02,7.45,10.18,10.5,17.12,3.99,9.07,2.9,10.81,6.61,16.38,3.89,5.84,8.6,9.19,10.89,10.8,8.62,6.03,12.63,4.48,22.95,9.31,11.12,5.2,21.81,14.16,20.23,18.24Z"/>
      <path class="cls-6" d="M1191.45,255.97c-2.86-.74-1.9-6.1-8.5-14.29-1.26-1.57-2.49-3.08-4.53-4.79-5.33-4.44-9.59-4.64-9.73-6.58-.15-2,4.26-2.8,9.19-6.04,3.05-2,4.61-3.96,12.8-17.2,8.68-14.01,8.11-13.72,9.49-15.04,6.54-6.25,14.92-8.69,20.87-10.43,6.95-2.03,8.15-1.23,14.51-3.52,3.77-1.36,9.46-3.41,14.5-7.63,8.35-6.98,7.81-13.41,17.13-25.05.76-.95,5.82-7.22,5.82-7.22h0c-3.43,2.35,6.87-4.71,10.4-6.91.27-.17.48-.3.58-.36,1.04-.62,3.34-1.89,6.53-2.68,2.39-.59,7.79-1.53,8.16-.54.47,1.26-8.09,3.14-16.19,10.39-2.13,1.91-8.34,7.88-11.64,17.1-1.83,5.12-.73,5.55-2.81,11.46-1.09,3.09-3.3,9.22-8.33,14.94-4.75,5.4-9.91,8.03-16.86,11.57-9.07,4.63-10.99,3.75-16.44,7.8-5.72,4.24-8.78,9.04-10.24,11.37-5.48,8.76-3.51,12.45-7.59,22.72-4.39,11.07-12.74,22.08-17.13,20.94Z"/>
      <path class="cls-6" d="M995.26,301.01c1.59,2.39-2.89,5.73-3.78,16.04-.17,1.97-.33,3.88-.02,6.46.81,6.72,3.82,9.61,2.56,11.14-1.3,1.57-5.12-.68-11.04-1.46-3.66-.49-6.19-.04-21.57,4.45-16.28,4.75-15.65,4.9-17.6,4.99-9.23.4-17.14-3.2-22.77-5.76-6.57-2.99-6.89-4.35-13.19-6.76-3.74-1.43-9.39-3.58-16.09-3.72-11.09-.23-15.21,4.87-30.3,7.46-1.23.21-9.39,1.58-9.39,1.58h0c4.19.48-8.39-.95-12.55-1.6-.32-.05-.57-.09-.69-.11-1.2-.21-3.8-.76-6.71-2.24-2.18-1.1-6.84-3.89-6.41-4.86.54-1.23,8.19,2.9,19.28,2.76,2.92-.04,11.71-.44,20.64-5.12,4.96-2.6,4.45-3.63,10.14-6.66,2.98-1.58,8.93-4.68,16.67-5.66,7.31-.92,12.98.46,20.6,2.32,9.96,2.43,10.76,4.31,17.64,4.84,7.21.55,12.85-1.01,15.57-1.79,10.22-2.94,11.36-6.93,21.6-11.89,11.04-5.35,24.97-8.1,27.4-4.42Z"/>
      <path class="cls-6" d="M1086.25,220.3c2.5,1.52,5.98-2.77,16.76-3.64,2.06-.17,4.05-.33,6.75-.03,7.02.76,10.05,3.64,11.64,2.43,1.64-1.25-.71-4.9-1.54-10.56-.51-3.51-.05-5.93,4.62-20.65,4.95-15.58,5.1-14.99,5.19-16.85.4-8.83-3.36-16.4-6.04-21.78-3.13-6.28-4.56-6.59-7.08-12.62-1.5-3.58-3.75-8.98-3.9-15.39-.25-10.61,5.07-14.56,7.76-29,.22-1.18,1.64-8.98,1.64-8.98h0c.5,4.01-1-8.02-1.69-12.01-.05-.3-.09-.54-.11-.66-.22-1.15-.8-3.63-2.34-6.42-1.16-2.08-4.08-6.54-5.09-6.13-1.28.52,3.04,7.83,2.91,18.45-.03,2.79-.44,11.2-5.33,19.76-2.71,4.75-3.79,4.26-6.94,9.72-1.65,2.85-4.88,8.56-5.89,15.97-.95,7,.5,12.42,2.45,19.72,2.55,9.53,4.52,10.29,5.08,16.87.59,6.9-1.04,12.3-1.85,14.9-3.06,9.79-7.23,10.88-12.4,20.69-5.57,10.57-8.43,23.9-4.59,26.23Z"/>
      <path class="cls-6" d="M1008.52,381.83c2.86.75,1.89,6.1,8.49,14.3,1.26,1.57,2.48,3.09,4.53,4.79,5.32,4.45,9.59,4.65,9.73,6.59.14,2-4.26,2.8-9.19,6.03-3.05,2-4.61,3.96-12.82,17.19-8.69,14-8.13,13.71-9.51,15.03-6.55,6.24-14.92,8.68-20.88,10.41-6.96,2.02-8.16,1.22-14.51,3.5-3.77,1.36-9.46,3.4-14.51,7.62-8.36,6.98-7.82,13.4-17.15,25.04-.76.95-5.83,7.22-5.83,7.22h0c3.44-2.35-6.87,4.7-10.41,6.9-.27.17-.48.3-.58.36-1.04.62-3.34,1.89-6.54,2.67-2.39.59-7.8,1.53-8.16.54-.47-1.26,8.1-3.13,16.2-10.38,2.13-1.91,8.35-7.87,11.66-17.09,1.84-5.12.74-5.55,2.82-11.46,1.09-3.09,3.31-9.22,8.35-14.93,4.76-5.39,9.92-8.02,16.87-11.56,9.08-4.62,10.99-3.74,16.45-7.78,5.72-4.24,8.79-9.03,10.25-11.36,5.49-8.76,3.52-12.45,7.61-22.71,4.4-11.07,12.77-22.07,17.15-20.93Z"/>
      <path class="cls-6" d="M1169.22,406.22c.93-2.69,6.47-1.48,15.38-7.35,1.7-1.12,3.35-2.21,5.25-4.07,4.93-4.85,5.36-8.91,7.4-8.94,2.1-.03,2.69,4.22,5.8,9.11,1.92,3.02,3.88,4.62,17.24,13.17,14.14,9.06,13.87,8.5,15.17,9.89,6.16,6.59,8.25,14.73,9.74,20.52,1.74,6.76.83,7.86,2.88,14.05,1.21,3.68,3.04,9.22,7.17,14.27,6.83,8.36,13.56,8.2,25.2,17.74.95.78,7.22,5.95,7.22,5.95h0c-2.27-3.41,4.53,6.82,6.64,10.32.16.27.29.48.35.58.59,1.03,1.79,3.29,2.44,6.39.48,2.31,1.18,7.53.12,7.83-1.34.38-2.83-7.91-9.96-16.04-1.87-2.14-7.76-8.4-17.2-12.06-5.24-2.03-5.75-1-11.8-3.31-3.17-1.21-9.44-3.66-15.13-8.78-5.37-4.84-7.84-9.91-11.15-16.74-4.33-8.93-3.31-10.7-7.24-16.13-4.11-5.69-8.95-8.88-11.3-10.4-8.84-5.72-12.8-4.04-23.29-8.49-11.31-4.8-22.34-13.39-20.91-17.51Z"/>
      <path class="cls-6" d="M1222.6,335.69c-1.5-2.45,3.1-5.63,4.37-15.9.24-1.96.48-3.87.26-6.46-.56-6.74-3.46-9.74-2.14-11.22,1.36-1.53,5.09.85,10.98,1.84,3.64.61,6.19.25,21.72-3.71,16.44-4.2,15.83-4.37,17.78-4.39,9.24-.08,17.01,3.78,22.54,6.53,6.45,3.21,6.72,4.58,12.93,7.2,3.69,1.55,9.25,3.9,15.94,4.26,11.07.6,15.38-4.35,30.55-6.43,1.24-.17,9.44-1.26,9.44-1.26h0c-4.17-.62,8.35,1.24,12.48,2.03.31.06.56.11.68.13,1.2.25,3.77.88,6.63,2.46,2.13,1.18,6.69,4.12,6.23,5.08-.58,1.21-8.08-3.18-19.16-3.42-2.91-.06-11.72.04-20.82,4.42-5.05,2.43-4.58,3.47-10.38,6.31-3.04,1.48-9.1,4.38-16.87,5.09-7.34.67-12.95-.9-20.5-3.02-9.87-2.77-10.59-4.68-17.45-5.44-7.18-.8-12.88.58-15.62,1.26-10.32,2.59-11.61,6.54-22.03,11.15-11.23,4.97-25.25,7.24-27.55,3.49Z"/>
      <path class="cls-6" d="M1118.2,417.28c-2.51-1.51-5.97,2.8-16.74,3.71-2.06.17-4.05.34-6.75.06-7.02-.73-10.07-3.6-11.66-2.38-1.64,1.26.74,4.9,1.59,10.56.53,3.5.08,5.93-4.52,20.67-4.87,15.6-5.03,15.01-5.11,16.88-.36,8.84,3.44,16.38,6.15,21.75,3.16,6.27,4.59,6.57,7.14,12.59,1.51,3.57,3.8,8.96,3.98,15.37.3,10.61-5,14.59-7.62,29.04-.21,1.18-1.6,8.99-1.6,8.99h0c-.52-4.01,1.04,8.02,1.75,12,.05.3.1.54.12.66.23,1.15.81,3.63,2.38,6.41,1.17,2.08,4.11,6.52,5.12,6.11,1.28-.52-3.08-7.82-3-18.43.02-2.79.39-11.21,5.23-19.78,2.69-4.76,3.76-4.28,6.9-9.75,1.64-2.86,4.84-8.58,5.82-15.99.92-7-.56-12.42-2.55-19.7-2.6-9.52-4.57-10.27-5.16-16.85-.62-6.9.98-12.3,1.78-14.91,3.01-9.8,7.18-10.91,12.3-20.75,5.52-10.6,8.31-23.94,4.46-26.25Z"/>
      <path class="cls-6" d="M1004.23,256.33c.58,2.01-3.33,3.46-6.27,10.55-.56,1.36-1.11,2.67-1.47,4.55-.94,4.9.53,7.55-.7,8.37-1.27.85-3.46-1.51-7.46-3.26-2.48-1.08-4.36-1.28-16.22-1.22-12.55.07-12.15.3-13.54-.04-6.6-1.59-11.37-5.72-14.77-8.66-3.96-3.43-3.88-4.46-7.79-7.43-2.32-1.76-5.82-4.42-10.51-5.87-7.77-2.4-11.83.36-23.05-.86-.92-.1-6.98-.78-6.98-.78h0c2.85,1.18-5.7-2.37-8.49-3.67-.21-.1-.38-.18-.46-.22-.8-.39-2.51-1.3-4.23-2.93-1.29-1.22-3.95-4.13-3.43-4.73.66-.76,5.12,3.7,12.98,5.84,2.06.56,8.36,2.06,15.71.56,4.08-.83,3.95-1.66,8.65-2.65,2.46-.52,7.36-1.5,13.04-.62,5.37.83,9.05,2.95,14.01,5.8,6.48,3.73,6.62,5.22,11.35,6.98,4.96,1.85,9.29,1.88,11.39,1.88,7.87,0,9.57-2.6,17.91-4.02,8.99-1.54,19.43-.67,20.33,2.42Z"/>
      <path class="cls-6" d="M989.36,346.59c1.72,1.28-.5,4.68,1.57,12.05.4,1.41.78,2.77,1.67,4.49,2.31,4.47,5.15,5.75,4.68,7.11-.49,1.41-3.72.77-8.02,1.66-2.66.55-4.29,1.47-13.75,8.31-10.01,7.24-9.55,7.19-10.87,7.72-6.28,2.51-12.69,1.93-17.25,1.52-5.32-.48-5.9-1.35-10.89-1.49-2.96-.08-7.43-.21-12.09,1.32-7.73,2.53-9.25,7.06-19,12.52-.8.45-6.08,3.37-6.08,3.37h0c3.02-.68-6.05,1.37-9.1,1.93-.23.04-.42.07-.5.09-.89.15-2.82.39-5.23.07-1.79-.24-5.75-1.05-5.7-1.82.05-.98,6.42.03,14.05-2.75,2.01-.73,7.98-3.14,12.94-8.55,2.75-3,2.13-3.59,5.28-7.08,1.65-1.82,4.96-5.41,10.05-7.97,4.82-2.41,9.1-2.82,14.85-3.38,7.53-.72,8.57.39,13.46-.91,5.13-1.36,8.62-3.81,10.3-5.01,6.3-4.51,6.05-7.56,11.84-13.48,6.24-6.38,15.15-11.66,17.8-9.71Z"/>
      <path class="cls-6" d="M1045.7,410.69c2.17-.16,2.91,3.79,9.62,7.91,1.28.79,2.53,1.55,4.39,2.25,4.85,1.82,7.85.94,8.46,2.26.63,1.36-2.21,2.96-4.77,6.38-1.58,2.12-2.15,3.85-4.35,15-2.33,11.8-2.02,11.47-2.63,12.71-2.89,5.9-8.04,9.59-11.71,12.21-4.28,3.07-5.32,2.79-9.11,5.89-2.25,1.84-5.65,4.62-8.03,8.75-3.95,6.84-1.89,11.18-5.29,21.49-.28.84-2.13,6.41-2.13,6.41h0c1.76-2.45-3.52,4.9-5.39,7.28-.14.18-.25.32-.31.39-.55.68-1.81,2.11-3.82,3.42-1.5.98-4.99,2.92-5.5,2.32-.65-.76,4.78-4.11,8.48-11.07.97-1.83,3.71-7.46,3.58-14.65-.07-3.99-.95-4.03-1.06-8.63-.06-2.41-.13-7.2,1.85-12.36,1.87-4.88,4.75-7.94,8.63-12.05,5.06-5.38,6.62-5.22,9.33-9.33,2.84-4.31,3.71-8.37,4.1-10.34,1.5-7.4-.83-9.49-.7-17.6.14-8.74,3.03-18.38,6.37-18.63Z"/>
      <path class="cls-6" d="M1132.27,419.97c1.46-1.55,4.84.82,12.67-.62,1.5-.28,2.95-.54,4.8-1.26,4.82-1.88,6.36-4.5,7.75-3.94,1.43.57.53,3.61,1.14,7.77.38,2.58,1.22,4.21,7.65,13.74,6.81,10.09,6.8,9.64,7.25,10.94,2.16,6.18,1.08,12.25.32,16.57-.89,5.04-1.84,5.53-2.35,10.28-.3,2.82-.76,7.07.49,11.64,2.07,7.56,6.68,9.34,11.65,19.05.41.79,3.07,6.05,3.07,6.05h0c-.49-2.94.99,5.87,1.34,8.83.03.22.05.4.06.49.09.86.2,2.72-.3,4.99-.38,1.69-1.51,5.41-2.31,5.31-1.02-.12.5-6.13-1.84-13.61-.62-1.97-2.69-7.85-7.97-12.97-2.93-2.84-3.59-2.29-6.99-5.55-1.78-1.7-5.28-5.13-7.57-10.18-2.16-4.77-2.28-8.89-2.43-14.42-.21-7.24,1.03-8.15.03-12.91-1.04-5-3.35-8.51-4.47-10.19-4.24-6.35-7.44-6.32-13.19-12.28-6.2-6.42-11.05-15.32-8.81-17.7Z"/>
      <path class="cls-6" d="M1209.58,376.14c-.27-2.07,3.81-2.96,7.8-9.58.76-1.26,1.5-2.49,2.14-4.3,1.67-4.72.61-7.55,1.95-8.19,1.39-.66,3.2,1.97,6.89,4.26,2.29,1.41,4.12,1.87,15.86,3.45,12.43,1.67,12.06,1.38,13.39,1.91,6.29,2.48,10.39,7.23,13.31,10.61,3.4,3.94,3.17,4.95,6.59,8.43,2.03,2.06,5.09,5.18,9.52,7.26,7.33,3.45,11.76,1.28,22.68,4.03.89.23,6.79,1.73,6.79,1.73h0c-2.64-1.56,5.29,3.13,7.85,4.8.19.13.35.23.42.28.74.5,2.29,1.63,3.75,3.49,1.09,1.38,3.29,4.63,2.68,5.15-.76.66-4.51-4.37-11.96-7.58-1.96-.84-7.96-3.19-15.46-2.72-4.17.26-4.16,1.1-8.96,1.42-2.51.17-7.5.47-12.99-1.18-5.19-1.56-8.51-4.17-12.99-7.67-5.85-4.59-5.76-6.08-10.18-8.47-4.63-2.51-8.91-3.14-10.98-3.43-7.79-1.08-9.86,1.25-18.33,1.51-9.13.28-19.33-2.02-19.75-5.2Z"/>
      <path class="cls-6" d="M1208.7,287.32c-1.75-1.24.4-4.69-1.84-12.01-.43-1.4-.84-2.76-1.77-4.46-2.41-4.42-5.28-5.64-4.84-7.01.46-1.42,3.7-.85,7.98-1.82,2.65-.6,4.26-1.56,13.56-8.59,9.85-7.45,9.38-7.39,10.7-7.95,6.22-2.64,12.64-2.19,17.21-1.87,5.33.37,5.93,1.23,10.92,1.27,2.96.02,7.43.06,12.06-1.57,7.67-2.69,9.09-7.25,18.72-12.9.79-.46,6-3.5,6-3.5h0c-3.01.75,6.02-1.5,9.05-2.11.23-.05.41-.08.5-.1.88-.16,2.81-.45,5.22-.18,1.8.2,5.77.93,5.74,1.7-.03.98-6.42.1-13.99,3.04-1.99.77-7.91,3.3-12.74,8.82-2.68,3.06-2.05,3.64-5.12,7.18-1.61,1.85-4.83,5.51-9.87,8.17-4.76,2.51-9.03,3.01-14.77,3.68-7.51.88-8.57-.21-13.44,1.19-5.1,1.47-8.53,3.99-10.18,5.23-6.2,4.64-5.88,7.68-11.53,13.73-6.1,6.51-14.89,11.97-17.57,10.07Z"/>
      <path class="cls-6" d="M1155.7,226.94c-2.16.29-3.14-3.61-10.11-7.34-1.33-.71-2.62-1.4-4.52-1.99-4.95-1.54-7.89-.49-8.58-1.76-.71-1.32,2.02-3.09,4.36-6.65,1.45-2.21,1.9-3.97,3.39-15.22,1.58-11.92,1.29-11.56,1.82-12.84,2.51-6.05,7.42-10.04,10.91-12.87,4.08-3.31,5.13-3.1,8.72-6.41,2.13-1.97,5.34-4.94,7.46-9.2,3.51-7.06,1.18-11.27,3.92-21.76.22-.86,1.72-6.52,1.72-6.52h0c-1.6,2.55,3.2-5.1,4.91-7.58.13-.19.23-.34.28-.41.51-.71,1.68-2.21,3.59-3.63,1.43-1.06,4.79-3.2,5.35-2.63.7.72-4.51,4.38-7.76,11.55-.85,1.88-3.23,7.66-2.64,14.83.33,3.98,1.2,3.97,1.6,8.56.21,2.4.59,7.18-1.07,12.45-1.56,4.98-4.24,8.2-7.85,12.53-4.71,5.66-6.27,5.6-8.72,9.85-2.56,4.46-3.17,8.57-3.44,10.55-1.03,7.47,1.43,9.42,1.82,17.53.41,8.73-1.86,18.52-5.17,18.97Z"/>
      <path class="cls-6" d="M1075.24,221.17c-1.63,1.39-4.71-1.33-12.66-.73-1.52.11-2.99.23-4.92.75-5.01,1.36-6.85,3.79-8.16,3.1-1.36-.72-.11-3.64-.23-7.85-.08-2.6-.72-4.31-6.01-14.46-5.6-10.75-5.64-10.3-5.94-11.65-1.43-6.37.34-12.29,1.6-16.5,1.47-4.92,2.47-5.3,3.53-9.97.63-2.77,1.58-6.95.87-11.62-1.18-7.73-5.56-10-9.37-20.17-.31-.83-2.35-6.34-2.35-6.34h0c.15,2.97-.3-5.94-.31-8.91,0-.23,0-.4,0-.49.01-.86.11-2.73.88-4.93.57-1.64,2.13-5.21,2.92-5.03,1,.23-1.21,6.03.25,13.73.38,2.02,1.76,8.08,6.41,13.74,2.58,3.14,3.3,2.66,6.3,6.26,1.57,1.88,4.65,5.65,6.34,10.92,1.59,4.97,1.23,9.08.75,14.59-.64,7.21-1.97,7.99-1.53,12.83.46,5.08,2.34,8.81,3.26,10.61,3.48,6.76,6.66,7.08,11.68,13.61,5.41,7.04,9.2,16.39,6.71,18.52Z"/>
      <path class="cls-6" d="M1188.12,371.76c1.31.79,6.28-4.66,7.04-5.51,5.25-5.84,7.9-11.58,8.96-14.09,2.8-6.65,3.55-12.11,4.1-16.3.33-2.52,1.25-9.9.24-18.03-1.51-12.05-6.58-20.3-13.3-31.2-8.79-14.28-17.9-23.39-23.68-29.09-6.98-6.89-11.28-11.08-18.61-15.23-2.31-1.31-11.44-6.3-24.73-8.57-9.83-1.68-17.15-1.05-28.33-.09-7.01.6-15.04,1.33-25.14,4.15-4.33,1.21-9.65,3.3-20.3,7.49-10.68,4.2-16.04,6.26-19.52,8.27-8.44,4.86-14.85,8.56-19.2,15.92-2.85,4.83-3.71,10.06-5.44,20.52-1.19,7.21-1.51,12.79-1.6,14.7-.73,14.98,1.43,26.65,2.24,30.62,1.62,7.94,3.82,18.74,10.88,30.93,4.09,7.06,10.73,18.51,24,26.64,15.08,9.23,30.38,9.06,46.71,8.88,8.88-.1,26.01-.85,45.44-7.96,10.52-3.85,18.88-7.03,25.6-15.31,6.75-8.32,8.19-17.29,8.96-22.05,1.96-12.21-.87-21.88-2.88-28.48-2.93-9.62-7.08-16.38-9.28-19.9-3.14-5.05-6.87-9.51-14.4-18.37-3.77-4.44-5.76-6.52-9.03-8.38-1.39-.79-4.97-2.65-12.95-3.61-10.99-1.31-19.78.35-26.01,1.58-1.82.36-8.65,1.75-17.28,4.9-9.83,3.59-16.34,5.96-22.19,12.01-2.14,2.21-5.23,5.4-6.92,10.35-3.09,9.02.58,17.36,6.4,29.4,5.15,10.64,7.73,15.97,12.8,19.9,8.22,6.39,19.43,8.89,29.12,7.04,7.02-1.34,12.07-4.74,14.08-6.12,3.08-2.12,4.08-3.68,4.48-4.29,2.11-3.26,2.06-6.5,2-10.97-.04-3.01-.1-6.96-1.68-7.4-.68-.19-1.2.39-3.5,1.99-2.13,1.48-4.23,2.76-5.42,3.38-3.31,1.72-6.5,1.93-7.4,1.97-1.88.1-6.5.43-9.92-2.45-3.65-3.07-3.98-7.48-4.16-9.8-.08-1.02-.65-10.63,6.72-16.54,9.84-7.89,24.04-1.36,25.6-.61,9.21,4.4,12.86,12.51,14.4,15.92,1.38,3.07,5.32,12.18,1.92,22.66-3.22,9.91-11.05,15.03-16.64,18.68-10.81,7.07-21.4,8-27.84,8.57-6.49.58-10.29-.4-11.2-.61-7.25-1.66-12.19-5.43-15.53-8.05-3.41-2.66-5.53-5.03-8.72-8.57-1.73-1.93-5.62-6.25-8.72-11.05-4.44-6.87-6.03-12.83-8.31-21.64-3.41-13.2-5.12-19.8-3.7-28.4.65-3.91,1.95-11.22,7.54-18.14,2.45-3.03,7.33-7.55,20.48-12.86,17.47-7.05,33.48-7.55,41.6-7.35,13.44.33,32.53.79,49.59,13.17,12.55,9.1,18.2,20.45,24.96,33.99,2.2,4.42,7.8,16.33,9.92,30.93,1.11,7.62,1.92,13.21.32,18.37-1.02,3.3-1.45,6.75-2.24,10.11-.54,2.32-.88,3.64-.32,3.98Z"/>
    </g>
  </g>
</svg>